P3
8 8
255
0 0 0
139 69 19
139 69 19
139 69 19
139 69 19
0 0 0
0 0 0
0 0 0
0 0 0
0 0 0
139 69 19
139 69 19
139 69 19
139 69 19
0 0 0
0 0 0
0 0 0
0 0 0
139 69 19
139 69 19
139 69 19
139 69 19
0 0 0
0 0 0
0 0 0
139 69 19
0 0 0
139 69 19
139 69 19
0 0 0
139 69 19
0 0 0
0 0 0
139 69 19
139 69 19
139 69 19
139 69 19
139 69 19
139 69 19
0 0 0
139 69 19
139 69 19
0 0 0
139 69 19
139 69 19
0 0 0
139 69 19
139 69 19
139 69 19
139 69 19
139 69 19
0 0 0
0 0 0
139 69 19
139 69 19
139 69 19
0 0 0
139 69 19
139 69 19
139 69 19
139 69 19
139 69 19
139 69 19
0 0 0