P3
8 8
255
255 100 0
255 100 0
255 100 0
255 100 0
255 100 0
255 100 0
255 100 0
255 100 0
255 255 255
255 255 255
255 100 0
255 100 0
255 100 0
255 100 0
255 255 255
255 255 255
0 0 0
255 255 255
255 100 0
255 100 0
255 100 0
255 100 0
255 255 255
0 0 0
255 255 255
255 255 255
255 100 0
255 100 0
255 100 0
255 100 0
255 255 255
255 255 255
255 100 0
255 100 0
255 100 0
255 100 0
255 100 0
255 100 0
255 100 0
255 100 0
0 0 0
0 0 0
0 0 0
0 0 0
0 0 0
0 0 0
0 0 0
0 0 0
255 100 0
255 100 0
255 100 0
255 100 0
255 100 0
254 77 207
254 77 207
255 100 0
255 100 0
255 100 0
255 100 0
255 100 0
255 100 0
254 77 207
254 77 207
255 100 0