P3
8 8
255
255 100 0
255 100 0
255 100 0
255 100 0
255 100 0
255 100 0
255 100 0
255 100 0
255 100 0
255 100 0
255 255 255
255 100 0
255 100 0
255 255 255
255 100 0
255 100 0
255 100 0
255 255 255
0 0 0
255 100 0
255 100 0
0 0 0
255 255 255
255 100 0
255 100 0
255 255 255
255 255 255
255 100 0
255 100 0
255 255 255
255 255 255
255 100 0
255 100 0
255 100 0
255 100 0
255 100 0
255 100 0
255 100 0
255 100 0
255 100 0
199 143 167
199 143 167
255 100 0
255 100 0
255 100 0
255 100 0
199 143 167
199 143 167
199 143 167
199 143 167
255 100 0
0 0 0
0 0 0
255 100 0
199 143 167
199 143 167
255 100 0
255 100 0
255 100 0
0 0 0
0 0 0
255 100 0
255 100 0
255 100 0